<?xml version="1.0" standalone="no"?>
<!DOCTYPE svg PUBLIC "-//W3C//DTD SVG 20010904//EN"
 "http://www.w3.org/TR/2001/REC-SVG-20010904/DTD/svg10.dtd">
<svg version="1.0" xmlns="http://www.w3.org/2000/svg"
 width="500.000000pt" height="500.000000pt" viewBox="0 0 500.000000 500.000000"
 preserveAspectRatio="xMidYMid meet">

<g transform="translate(0.000000,500.000000) scale(0.100000,-0.100000)"
fill="#000000" stroke="none">
<path d="M2445 4478 c-267 -41 -447 -94 -629 -185 -276 -138 -433 -258 -613
-467 -118 -137 -185 -239 -267 -403 -81 -161 -99 -210 -136 -353 -51 -202 -55
-238 -54 -510 0 -223 3 -269 23 -369 54 -274 188 -576 348 -783 115 -150 322
-341 486 -451 157 -104 364 -198 534 -241 197 -51 273 -59 528 -60 226 0 248
1 370 27 72 16 171 42 220 58 154 51 436 196 529 272 l30 24 -22 34 c-12 19
-31 45 -42 58 l-20 23 -87 -57 c-108 -70 -341 -184 -446 -219 -157 -52 -268
-68 -484 -73 -121 -3 -241 -1 -299 6 -301 36 -613 168 -853 361 -214 173 -363
357 -497 615 -70 134 -101 222 -146 405 -29 120 -31 134 -31 345 -1 236 8 325
49 482 83 319 277 641 511 850 169 149 232 193 413 284 156 78 200 95 380 141
136 35 173 40 305 45 387 14 696 -62 1018 -249 67 -39 69 -39 89 -21 25 23 48
66 48 92 0 23 -68 66 -225 141 -181 88 -321 130 -545 165 -165 26 -364 32
-485 13z"/>
<path d="M2647 3863 c-4 -3 -7 -251 -7 -549 l0 -543 -57 -28 c-80 -39 -116
-87 -121 -162 -5 -72 13 -115 71 -167 39 -36 40 -37 28 -73 -7 -20 -16 -45
-21 -56 -5 -11 -20 -54 -34 -95 -14 -41 -55 -160 -92 -265 -36 -104 -68 -199
-71 -210 -2 -11 -8 -29 -13 -40 -38 -92 -150 -428 -150 -450 0 -32 20 -12 39
40 12 31 21 58 21 61 0 3 6 20 14 37 7 18 24 66 36 107 13 41 37 113 55 160
18 47 81 230 141 407 l109 323 45 5 c94 13 153 53 190 130 26 54 25 89 -4 151
-25 54 -63 91 -105 101 -53 12 -51 -12 -51 562 0 295 -4 542 -8 549 -5 7 -11
9 -15 5z"/>
</g>
</svg>
