<svg className="ghost-svg" viewBox="0 0 512 512" xmlns="http://www.w3.org/2000/svg">
    <path className="ghost-body" d="m508.374 432.802s-46.6-39.038-79.495-275.781c-8.833-87.68-82.856-156.139-172.879-156.139-90.015 0-164.046 68.458-172.879 156.138-32.895 236.743-79.495 275.782-79.495 275.782-15.107 25.181 20.733 28.178 38.699 27.94 35.254-.478 35.254 40.294 70.516 40.294 35.254 0 35.254-35.261 70.508-35.261s37.396 45.343 72.65 45.343 37.389-45.343 72.651-45.343c35.254 0 35.254 35.261 70.508 35.261s35.27-40.772 70.524-40.294c17.959.238 53.798-2.76 38.692-27.94z" fill="white" />
    <circle className="ghost-eye left-eye" cx="210" cy="225" r="22" fill="black" />
    <circle className="ghost-eye right-eye" cx="297" cy="225" r="22" fill="black" />
</svg>